<svg width="24" height="24" viewBox="0 0 24 24" fill="none" xmlns="http://www.w3.org/2000/svg">
<g clip-path="url(#clip0)">
<path d="M17.25 12.75C20.5637 12.75 23.25 10.0637 23.25 6.75C23.25 3.43629 20.5637 0.75 17.25 0.75C13.9363 0.75 11.25 3.43629 11.25 6.75C11.25 10.0637 13.9363 12.75 17.25 12.75Z" stroke="#31619B" stroke-width="1.6" stroke-linecap="round" stroke-linejoin="round"/>
<path d="M15.75 9.75V3.75H18C18.3978 3.75 18.7794 3.90804 19.0607 4.18934C19.342 4.47064 19.5 4.85218 19.5 5.25C19.5 5.64782 19.342 6.02936 19.0607 6.31066C18.7794 6.59196 18.3978 6.75 18 6.75C18.3978 6.75 18.7794 6.90804 19.0607 7.18934C19.342 7.47064 19.5 7.85218 19.5 8.25C19.5 8.64782 19.342 9.02936 19.0607 9.31066C18.7794 9.59196 18.3978 9.75 18 9.75H15.75Z" stroke="#31619B" stroke-width="1.6" stroke-linecap="round" stroke-linejoin="round"/>
<path d="M15.75 6.75H18" stroke="#31619B" stroke-width="1.6" stroke-linecap="round" stroke-linejoin="round"/>
<path d="M17.25 3.75V3" stroke="#31619B" stroke-width="1.6" stroke-linecap="round" stroke-linejoin="round"/>
<path d="M17.25 9.75V10.5" stroke="#31619B" stroke-width="1.6" stroke-linecap="round" stroke-linejoin="round"/>
<path d="M8.25 14.25H6.217C5.90543 14.2502 5.60365 14.3588 5.36341 14.5572C5.12317 14.7556 4.95944 15.0314 4.90032 15.3373C4.8412 15.6432 4.89036 15.9602 5.03937 16.2338C5.18838 16.5074 5.42795 16.7207 5.717 16.837L7.781 17.663C8.07005 17.7793 8.30962 17.9926 8.45863 18.2662C8.60764 18.5398 8.6568 18.8568 8.59768 19.1627C8.53855 19.4686 8.37483 19.7444 8.13459 19.9428C7.89435 20.1412 7.59257 20.2498 7.281 20.25H5.25" stroke="#31619B" stroke-width="1.6" stroke-linecap="round" stroke-linejoin="round"/>
<path d="M6.75 14.25V13.5" stroke="#31619B" stroke-width="1.6" stroke-linecap="round" stroke-linejoin="round"/>
<path d="M6.75 21V20.25" stroke="#31619B" stroke-width="1.6" stroke-linecap="round" stroke-linejoin="round"/>
<path d="M6.75 23.25C10.0637 23.25 12.75 20.5637 12.75 17.25C12.75 13.9363 10.0637 11.25 6.75 11.25C3.43629 11.25 0.75 13.9363 0.75 17.25C0.75 20.5637 3.43629 23.25 6.75 23.25Z" stroke="#31619B" stroke-width="1.6" stroke-linecap="round" stroke-linejoin="round"/>
<path d="M0.75 4.5L3 8.25L6.75 6" stroke="#31619B" stroke-width="1.6" stroke-linecap="round" stroke-linejoin="round"/>
<path d="M8.189 0.900024C6.80066 1.40629 5.61675 2.35405 4.81888 3.59791C4.02101 4.84177 3.65325 6.31304 3.772 7.78602" stroke="#31619B" stroke-width="1.6" stroke-linecap="round" stroke-linejoin="round"/>
<path d="M23.25 19.5L21 15.75L17.25 18" stroke="#31619B" stroke-width="1.6" stroke-linecap="round" stroke-linejoin="round"/>
<path d="M15.811 23.0999C17.199 22.5938 18.3826 21.6463 19.1805 20.4029C19.9783 19.1594 20.3463 17.6886 20.228 16.2159" stroke="#31619B" stroke-width="1.6" stroke-linecap="round" stroke-linejoin="round"/>
</g>
<defs>
<clipPath id="clip0">
<rect width="24" height="24" fill="white"/>
</clipPath>
</defs>
</svg>
