<svg width="20" height="20" viewBox="0 0 20 20" fill="none" xmlns="http://www.w3.org/2000/svg">
<path d="M15.8767 5.89172L16.76 5.00755C16.9877 4.7718 17.1137 4.45604 17.1108 4.1283C17.108 3.80055 16.9765 3.48704 16.7448 3.25528C16.513 3.02352 16.1995 2.89206 15.8718 2.88921C15.544 2.88636 15.2283 3.01235 14.9925 3.24005L14.1083 4.12338" stroke="#31619B" stroke-width="1.6" stroke-linecap="round" stroke-linejoin="round"/>
<path d="M11.8825 6.34998L1.2925 16.94C1.0648 17.1757 0.938808 17.4915 0.941656 17.8192C0.944504 18.147 1.07596 18.4605 1.30773 18.6922C1.53949 18.924 1.853 19.0555 2.18075 19.0583C2.50849 19.0612 2.82425 18.9352 3.06 18.7075L13.65 8.11748" stroke="#31619B" stroke-width="1.6" stroke-linecap="round" stroke-linejoin="round"/>
<path d="M12.7825 7.2175C14.8604 9.2799 16.6539 11.6102 18.1158 14.1467C18.2672 14.068 18.4057 13.9669 18.5267 13.8467C19.9917 12.3817 18.4083 8.425 14.9917 5.0075C11.575 1.59 7.61834 0.00749692 6.15334 1.47166C6.0333 1.5931 5.93217 1.73187 5.85334 1.88333C8.38989 3.34549 10.7201 5.13935 12.7825 7.2175V7.2175Z" stroke="#31619B" stroke-width="1.6" stroke-linecap="round" stroke-linejoin="round"/>
</svg>
