<svg width="20" height="20" viewBox="0 0 20 20" fill="none" xmlns="http://www.w3.org/2000/svg">
<path d="M15.8333 10.8333C16.2936 10.8333 16.6667 10.4602 16.6667 9.99996C16.6667 9.53972 16.2936 9.16663 15.8333 9.16663C15.3731 9.16663 15 9.53972 15 9.99996C15 10.4602 15.3731 10.8333 15.8333 10.8333Z" stroke="#31619B" stroke-width="1.8" stroke-linecap="round" stroke-linejoin="round"/>
<path d="M9.99996 10.8333C10.4602 10.8333 10.8333 10.4602 10.8333 9.99996C10.8333 9.53972 10.4602 9.16663 9.99996 9.16663C9.53972 9.16663 9.16663 9.53972 9.16663 9.99996C9.16663 10.4602 9.53972 10.8333 9.99996 10.8333Z" stroke="#31619B" stroke-width="1.8" stroke-linecap="round" stroke-linejoin="round"/>
<path d="M4.16671 10.8333C4.62694 10.8333 5.00004 10.4602 5.00004 9.99996C5.00004 9.53972 4.62694 9.16663 4.16671 9.16663C3.70647 9.16663 3.33337 9.53972 3.33337 9.99996C3.33337 10.4602 3.70647 10.8333 4.16671 10.8333Z" stroke="#31619B" stroke-width="1.8" stroke-linecap="round" stroke-linejoin="round"/>
</svg>
