<svg width="22" height="22" viewBox="0 0 22 22" fill="none" xmlns="http://www.w3.org/2000/svg">
<path d="M11 13.75C12.5188 13.75 13.75 12.5188 13.75 11C13.75 9.48122 12.5188 8.25 11 8.25C9.48122 8.25 8.25 9.48122 8.25 11C8.25 12.5188 9.48122 13.75 11 13.75Z" stroke="#31619B" stroke-width="1.8" stroke-linecap="round" stroke-linejoin="round"/>
<path d="M17.7833 13.7501C17.6613 14.0266 17.6249 14.3333 17.6788 14.6306C17.7327 14.928 17.8745 15.2024 18.0858 15.4184L18.1408 15.4734C18.3113 15.6437 18.4465 15.8459 18.5388 16.0684C18.631 16.291 18.6785 16.5296 18.6785 16.7705C18.6785 17.0114 18.631 17.25 18.5388 17.4726C18.4465 17.6951 18.3113 17.8973 18.1408 18.0676C17.9706 18.238 17.7684 18.3733 17.5458 18.4655C17.3232 18.5578 17.0847 18.6053 16.8438 18.6053C16.6028 18.6053 16.3643 18.5578 16.1417 18.4655C15.9191 18.3733 15.7169 18.238 15.5467 18.0676L15.4917 18.0126C15.2756 17.8013 15.0012 17.6595 14.7039 17.6056C14.4065 17.5517 14.0998 17.5881 13.8233 17.7101C13.5522 17.8263 13.321 18.0192 13.1581 18.2652C12.9952 18.5111 12.9078 18.7993 12.9067 19.0942V19.2501C12.9067 19.7363 12.7135 20.2026 12.3697 20.5464C12.0259 20.8903 11.5596 21.0834 11.0733 21.0834C10.5871 21.0834 10.1208 20.8903 9.77697 20.5464C9.43316 20.2026 9.24 19.7363 9.24 19.2501V19.1676C9.2329 18.8642 9.13469 18.5699 8.95814 18.3231C8.78158 18.0762 8.53484 17.8882 8.25 17.7834C7.97352 17.6614 7.66682 17.625 7.36946 17.6789C7.0721 17.7328 6.79771 17.8746 6.58167 18.0859L6.52667 18.1409C6.3564 18.3114 6.1542 18.4466 5.93164 18.5389C5.70908 18.6311 5.47051 18.6786 5.22958 18.6786C4.98866 18.6786 4.75009 18.6311 4.52753 18.5389C4.30496 18.4466 4.10277 18.3114 3.9325 18.1409C3.76204 17.9706 3.62682 17.7685 3.53456 17.5459C3.4423 17.3233 3.39481 17.0848 3.39481 16.8438C3.39481 16.6029 3.4423 16.3643 3.53456 16.1418C3.62682 15.9192 3.76204 15.717 3.9325 15.5467L3.9875 15.4917C4.19883 15.2757 4.34059 15.0013 4.39451 14.704C4.44842 14.4066 4.41202 14.0999 4.29 13.8234C4.1738 13.5523 3.98086 13.3211 3.73493 13.1582C3.489 12.9953 3.20081 12.9079 2.90583 12.9067H2.75C2.26377 12.9067 1.79746 12.7136 1.45364 12.3698C1.10982 12.026 0.916668 11.5596 0.916668 11.0734C0.916668 10.5872 1.10982 10.1209 1.45364 9.77705C1.79746 9.43324 2.26377 9.24008 2.75 9.24008H2.8325C3.13591 9.23298 3.43017 9.13477 3.67703 8.95822C3.92388 8.78166 4.11191 8.53492 4.21667 8.25008C4.33869 7.9736 4.37509 7.6669 4.32117 7.36954C4.26725 7.07218 4.12549 6.79779 3.91417 6.58175L3.85917 6.52675C3.68871 6.35648 3.55349 6.15428 3.46123 5.93172C3.36896 5.70916 3.32148 5.47059 3.32148 5.22966C3.32148 4.98874 3.36896 4.75017 3.46123 4.52761C3.55349 4.30504 3.68871 4.10285 3.85917 3.93258C4.02944 3.76212 4.23163 3.6269 4.45419 3.53464C4.67676 3.44238 4.91532 3.39489 5.15625 3.39489C5.39718 3.39489 5.63575 3.44238 5.85831 3.53464C6.08087 3.6269 6.28307 3.76212 6.45333 3.93258L6.50833 3.98758C6.72437 4.19891 6.99877 4.34067 7.29613 4.39459C7.59349 4.4485 7.90019 4.4121 8.17667 4.29008H8.25C8.52112 4.17388 8.75235 3.98094 8.91522 3.73501C9.07809 3.48908 9.16549 3.20089 9.16667 2.90591V2.75008C9.16667 2.26385 9.35982 1.79754 9.70364 1.45372C10.0475 1.1099 10.5138 0.916748 11 0.916748C11.4862 0.916748 11.9525 1.1099 12.2964 1.45372C12.6402 1.79754 12.8333 2.26385 12.8333 2.75008V2.83258C12.8345 3.12755 12.9219 3.41574 13.0848 3.66167C13.2477 3.90761 13.4789 4.10055 13.75 4.21675C14.0265 4.33877 14.3332 4.37517 14.6305 4.32125C14.9279 4.26733 15.2023 4.12557 15.4183 3.91425L15.4733 3.85925C15.6436 3.68879 15.8458 3.55357 16.0684 3.46131C16.2909 3.36904 16.5295 3.32156 16.7704 3.32156C17.0113 3.32156 17.2499 3.36904 17.4725 3.46131C17.695 3.55357 17.8972 3.68879 18.0675 3.85925C18.238 4.02952 18.3732 4.23171 18.4654 4.45427C18.5577 4.67684 18.6052 4.9154 18.6052 5.15633C18.6052 5.39726 18.5577 5.63583 18.4654 5.85839C18.3732 6.08095 18.238 6.28315 18.0675 6.45341L18.0125 6.50841C17.8012 6.72445 17.6594 6.99885 17.6055 7.29621C17.5516 7.59357 17.588 7.90027 17.71 8.17675V8.25008C17.8262 8.5212 18.0191 8.75243 18.2651 8.9153C18.511 9.07817 18.7992 9.16557 19.0942 9.16675H19.25C19.7362 9.16675 20.2025 9.3599 20.5464 9.70372C20.8902 10.0475 21.0833 10.5139 21.0833 11.0001C21.0833 11.4863 20.8902 11.9526 20.5464 12.2964C20.2025 12.6403 19.7362 12.8334 19.25 12.8334H19.1675C18.8725 12.8346 18.5843 12.922 18.3384 13.0849C18.0925 13.2477 17.8995 13.479 17.7833 13.7501V13.7501Z" stroke="#31619B" stroke-width="1.8" stroke-linecap="round" stroke-linejoin="round"/>
</svg>
