<svg width="22" height="22" viewBox="0 0 22 22" fill="none" xmlns="http://www.w3.org/2000/svg">
<g clip-path="url(#clip0)">
<path d="M0.6875 13.0625V21.3125" stroke="#31619B" stroke-width="1.6" stroke-linecap="round" stroke-linejoin="round"/>
<path d="M0.6875 19.9375H15.8125C15.8125 19.2082 15.5228 18.5087 15.007 17.993C14.4913 17.4772 13.7918 17.1875 13.0625 17.1875H9.625C9.625 16.4582 9.33527 15.7587 8.81954 15.243C8.30382 14.7272 7.60435 14.4375 6.875 14.4375H0.6875" stroke="#31619B" stroke-width="1.6" stroke-linecap="round" stroke-linejoin="round"/>
<path d="M6.1875 17.1875H9.625" stroke="#31619B" stroke-width="1.6" stroke-linecap="round" stroke-linejoin="round"/>
<path d="M18.5533 16.5074C19.5524 15.7631 20.3297 14.7606 20.8015 13.6077C21.2734 12.4547 21.422 11.1949 21.2314 9.96382C21.0408 8.7327 20.5182 7.57685 19.7197 6.62058C18.9212 5.66432 17.8772 4.94382 16.6998 4.5366L18.3984 1.63077C18.4544 1.53528 18.4839 1.42659 18.4839 1.31589C18.4839 1.2052 18.4544 1.09651 18.3984 1.00102C18.3403 0.904631 18.2581 0.825034 18.1599 0.770064C18.0617 0.715093 17.9509 0.686645 17.8383 0.68752H11.0367C10.9244 0.686964 10.814 0.715564 10.7161 0.770518C10.6183 0.825473 10.5364 0.904899 10.4784 1.00102C10.4224 1.09651 10.3929 1.2052 10.3929 1.31589C10.3929 1.42659 10.4224 1.53528 10.4784 1.63077L12.177 4.5366C10.832 5.00157 9.66512 5.87367 8.83823 7.03187C8.01134 8.19007 7.56548 9.57694 7.5625 11" stroke="#31619B" stroke-width="1.6" stroke-linecap="round" stroke-linejoin="round"/>
<path d="M12.5583 12.6903C12.7569 12.951 13.0153 13.1601 13.3118 13.2997C13.6083 13.4393 13.934 13.5054 14.2615 13.4924C15.3056 13.4924 16.1526 12.8571 16.1526 12.0743C16.1526 11.2914 15.3056 10.6571 14.2615 10.6571C13.2174 10.6571 12.375 10.0219 12.375 9.23811C12.375 8.45436 13.222 7.82003 14.2652 7.82003C14.5927 7.80676 14.9185 7.87275 15.215 8.01239C15.5115 8.15203 15.77 8.3612 15.9683 8.62211" stroke="#31619B" stroke-width="1.6" stroke-linecap="round" stroke-linejoin="round"/>
<path d="M14.2652 13.4924V14.4375" stroke="#31619B" stroke-width="1.6" stroke-linecap="round" stroke-linejoin="round"/>
<path d="M14.2652 6.875V7.82008" stroke="#31619B" stroke-width="1.6" stroke-linecap="round" stroke-linejoin="round"/>
</g>
<defs>
<clipPath id="clip0">
<rect width="22" height="22" fill="white"/>
</clipPath>
</defs>
</svg>
